 
    <svg
      version="1.0"
      xmlns="http://www.w3.org/2000/svg"
      width="166.000000pt"
      height="57.000000pt"
      viewBox="0 0 166.000000 57.000000"
      preserveAspectRatio="xMidYMid meet"
    >
      <g
        transform="translate(0.000000,57.000000) scale(0.100000,-0.100000)"
        fill="#ff3343"
        stroke="none"
      >
        <path
          d="M0 523 l0 -50 64 -6 c125 -12 274 -108 340 -221 34 -58 66 -158 66
      -206 l0 -40 50 0 50 0 0 58 c-1 176 -137 370 -325 463 -73 36 -96 43 -165 47
      l-80 5 0 -50z"
        />
        <path
          d="M410 532 c56 -46 76 -66 122 -122 l38 -45 0 87 c0 114 -4 118 -118
      118 l-87 0 45 -38z"
        />
        <path
          d="M760 341 l0 -171 35 0 35 0 -2 168 -3 167 -32 3 -33 3 0 -170z"
        />
        <path
          d="M918 373 c-35 -22 -52 -56 -51 -100 2 -76 81 -127 158 -101 51 17 78
      55 78 109 0 36 -6 48 -36 76 -30 27 -45 33 -79 33 -24 0 -55 -8 -70 -17z m106
      -59 c9 -8 16 -24 16 -35 0 -23 -34 -59 -55 -59 -21 0 -55 36 -55 59 0 27 26
      51 55 51 13 0 31 -7 39 -16z"
        />
        <path
          d="M1169 361 c-25 -25 -29 -37 -29 -81 0 -44 4 -56 29 -81 22 -22 39
      -29 68 -29 22 0 44 5 51 12 9 9 12 6 12 -15 0 -44 -50 -60 -102 -33 -25 13
      -28 13 -44 -12 -16 -24 -16 -26 1 -38 27 -20 99 -27 138 -15 65 22 72 38 75
      187 l4 134 -31 0 c-21 0 -31 -5 -31 -16 0 -14 -2 -14 -22 0 -36 26 -85 20
      -119 -13z m126 -51 c24 -26 13 -68 -20 -76 -34 -8 -53 1 -67 31 -23 50 48 88
      87 45z"
        />
        <path
          d="M1454 356 c-29 -29 -34 -41 -34 -79 0 -56 27 -93 78 -107 97 -26 177
      48 152 141 -14 50 -57 79 -118 79 -37 0 -50 -6 -78 -34z m126 -45 c5 -11 10
      -27 10 -35 0 -20 -35 -56 -55 -56 -21 0 -55 36 -55 59 0 47 78 71 100 32z"
        />
        <path
          d="M0 326 l0 -56 33 0 c43 -1 114 -34 156 -73 41 -39 81 -120 81 -164
      l0 -33 56 0 56 0 -7 47 c-25 169 -161 307 -323 329 l-52 7 0 -57z"
        />
      </g>
    </svg>
